<?xml version="1.0" encoding="UTF-8"?>
<svg width="70px" height="64px" viewBox="0 0 70 64" version="1.1" xmlns="http://www.w3.org/2000/svg" xmlns:xlink="http://www.w3.org/1999/xlink">
    <!-- Generator: Sketch 59 (86127) - https://sketch.com -->
    <title>Colaboradores</title>
    <desc>Created with Sketch.</desc>
    <g id="Super-admin-—-dashboard" stroke="none" stroke-width="1" fill="none" fill-rule="evenodd">
        <g id="Colaboradores" fill="#2565C7">
            <path d="M70,56.5 C70,58.432 68.4355,60 66.5,60 C64.5645,60 63,58.432 63,56.5 C63,50.711 58.289,46 52.5,46 C50.1095,46 47.838,46.819 46.004,48.2715 C47.908,51.7575 49,55.7545 49,60 C49,61.932 47.4355,63.5 45.5,63.5 C43.5645,63.5 42,61.932 42,60 C42,50.3505 34.1495,42.5 24.5,42.5 C14.8505,42.5 7,50.3505 7,60 C7,61.932 5.4355,63.5 3.5,63.5 C1.5645,63.5 0,61.932 0,60 C0,46.49 10.9935,35.5 24.5,35.5 C31.2445,35.5 37.3555,38.2405 41.79,42.661 C44.8315,40.309 48.5765,39 52.5,39 C62.1495,39 70,46.8505 70,56.5 M52.5,21.5 C54.432,21.5 56,23.0715 56,25 C56,26.9285 54.432,28.5 52.5,28.5 C50.568,28.5 49,26.9285 49,25 C49,23.0715 50.568,21.5 52.5,21.5 M52.5,35.5 C58.289,35.5 63,30.789 63,25 C63,19.211 58.289,14.5 52.5,14.5 C46.711,14.5 42,19.211 42,25 C42,30.789 46.711,35.5 52.5,35.5 M24.5,7.5 C28.3605,7.5 31.5,10.6395 31.5,14.5 C31.5,18.3605 28.3605,21.5 24.5,21.5 C20.6395,21.5 17.5,18.3605 17.5,14.5 C17.5,10.6395 20.6395,7.5 24.5,7.5 M24.5,28.5 C32.221,28.5 38.5,22.221 38.5,14.5 C38.5,6.779 32.221,0.5 24.5,0.5 C16.779,0.5 10.5,6.779 10.5,14.5 C10.5,22.221 16.779,28.5 24.5,28.5" id="🎨-Icon-Сolor"></path>
        </g>
    </g>
</svg>