<?xml version="1.0" encoding="UTF-8"?>
<svg width="71px" height="71px" viewBox="0 0 71 71" version="1.1" xmlns="http://www.w3.org/2000/svg" xmlns:xlink="http://www.w3.org/1999/xlink">
    <!-- Generator: Sketch 59 (86127) - https://sketch.com -->
    <title>Costo</title>
    <desc>Created with Sketch.</desc>
    <g id="Super-admin-—-dashboard" stroke="none" stroke-width="1" fill="none" fill-rule="evenodd">
        <g id="Costo" transform="translate(-7.000000, -7.000000)">
            <g id="monetization_on-24px-(1)">
                <polygon id="Path" points="0 0 85 0 85 85 0 85"></polygon>
                <path d="M42.5,7.08333333 C22.95,7.08333333 7.08333333,22.95 7.08333333,42.5 C7.08333333,62.05 22.95,77.9166667 42.5,77.9166667 C62.05,77.9166667 77.9166667,62.05 77.9166667,42.5 C77.9166667,22.95 62.05,7.08333333 42.5,7.08333333 Z M42.5,70.8333333 C26.88125,70.8333333 14.1666667,58.11875 14.1666667,42.5 C14.1666667,26.88125 26.88125,14.1666667 42.5,14.1666667 C58.11875,14.1666667 70.8333333,26.88125 70.8333333,42.5 C70.8333333,58.11875 58.11875,70.8333333 42.5,70.8333333 Z" id="Shape" fill="#2565C7" fill-rule="nonzero"></path>
            </g>
            <g id="money_off-24px" transform="translate(15.000000, 16.000000)">
                <polygon id="Path" points="0 0 54 0 54 54 0 54"></polygon>
                <path d="M27.4667872,15.8833333 C30.7354489,15.8833333 32.3697797,17.1133333 32.968267,19.0722222 C33.2675107,20.0516667 34.2573167,20.6666667 35.2931601,20.6666667 L35.4312726,20.6666667 C37.0425847,20.6666667 38.2395594,19.0494444 37.6640908,17.5688889 C36.651266,14.9494444 34.4184479,12.8311111 30.9195988,11.9883333 L30.9195988,10.4166667 C30.9195988,8.52611111 29.377343,7 27.4667872,7 C25.5562315,7 24.0139757,8.52611111 24.0139757,10.4166667 L24.0139757,11.92 C23.1162447,12.1022222 22.2875699,12.3983333 21.4819138,12.74 L24.9577442,16.1794444 C25.694344,15.9972222 26.5460375,15.8833333 27.4667872,15.8833333 Z M9.67329826,10.69 C8.77556725,11.5783333 8.77556725,13.0133333 9.67329826,13.9016667 L15.9574153,20.1427778 C15.9574153,24.8805556 19.5483394,27.4772222 24.9577442,29.0488889 L33.0373232,37.0438889 C32.254686,38.16 30.6203551,39.1166667 27.4667872,39.1166667 C23.6686945,39.1166667 21.7121013,37.7727778 20.9524827,35.8594444 C20.6072016,34.9711111 19.8245643,34.3333333 18.8807958,34.3333333 L18.4894771,34.3333333 C16.8321276,34.3333333 15.6351529,36.0188889 16.3026965,37.4994444 C17.6608024,40.5288889 20.6532391,42.3283333 24.0369944,43.0572222 L24.0369944,44.5833333 C24.0369944,46.4738889 25.5792502,48 27.489806,48 C29.4003617,48 30.9426176,46.4738889 30.9426176,44.5833333 L30.9426176,43.1027778 C33.152417,42.6927778 35.1550477,41.85 36.6052285,40.5516667 L40.0810589,43.9911111 C40.9787899,44.8794444 42.4289707,44.8794444 43.3267017,43.9911111 C44.2244328,43.1027778 44.2244328,41.6677778 43.3267017,40.7794444 L12.9189411,10.69 C12.0212101,9.80166667 10.5710293,9.80166667 9.67329826,10.69 Z" id="Shape" fill="#2565C7" fill-rule="nonzero"></path>
            </g>
        </g>
    </g>
</svg>