<?xml version="1.0" encoding="UTF-8"?>
<svg width="70px" height="64px" viewBox="0 0 70 64" version="1.1" xmlns="http://www.w3.org/2000/svg" xmlns:xlink="http://www.w3.org/1999/xlink">
    <!-- Generator: Sketch 59 (86127) - https://sketch.com -->
    <title>Empresa</title>
    <desc>Created with Sketch.</desc>
    <g id="Super-admin-—-dashboard" stroke="none" stroke-width="1" fill="none" fill-rule="evenodd">
        <g id="Empresa" fill="#2565C7">
            <path d="M28,9.25 C28,8.284 28.784,7.5 29.75,7.5 L40.25,7.5 C41.216,7.5 42,8.284 42,9.25 L42,14.5 L28,14.5 L28,9.25 Z M45.5,21.5 L45.5,56.5 L24.5,56.5 L24.5,21.5 L45.5,21.5 Z M59.5,21.5 C61.4285,21.5 63,23.0715 63,25 L63,53 C63,54.9285 61.4285,56.5 59.5,56.5 L52.5,56.5 L52.5,21.5 L59.5,21.5 Z M17.5,21.5 L17.5,56.5 L10.5,56.5 C8.5715,56.5 7,54.9285 7,53 L7,25 C7,23.0715 8.5715,21.5 10.5,21.5 L17.5,21.5 Z M59.5,14.5 L49,14.5 L49,9.25 C49,4.427 45.073,0.5 40.25,0.5 L29.75,0.5 C24.927,0.5 21,4.427 21,9.25 L21,14.5 L10.5,14.5 C4.711,14.5 0,19.211 0,25 L0,53 C0,58.789 4.711,63.5 10.5,63.5 L59.5,63.5 C65.289,63.5 70,58.789 70,53 L70,25 C70,19.211 65.289,14.5 59.5,14.5 L59.5,14.5 Z" id="🎨-Icon-Сolor"></path>
        </g>
    </g>
</svg>