<?xml version="1.0" encoding="utf-8"?>
<!-- Generator: Adobe Illustrator 24.2.1, SVG Export Plug-In . SVG Version: 6.00 Build 0)  -->
<svg version="1.1" id="Layer_1" xmlns="http://www.w3.org/2000/svg" xmlns:xlink="http://www.w3.org/1999/xlink" x="0px" y="0px"
	 viewBox="0 0 18.77 18.77" style="enable-background:new 0 0 18.77 18.77;" xml:space="preserve">
<style type="text/css">
	.st0{fill:#FFFFFF;}
</style>
<g id="_x30_1._Facebook_2_">
	<g>
		<path id="Icon_9_" class="st0" d="M6.91,10.6c-0.07,0-1.62,0-2.33,0c-0.38,0-0.49-0.14-0.49-0.49c0-0.94,0-1.9,0-2.84
			c0-0.38,0.14-0.49,0.49-0.49h2.33c0-0.07,0-1.43,0-2.07c0-0.94,0.16-1.83,0.63-2.65c0.49-0.85,1.2-1.41,2.09-1.74
			C10.23,0.09,10.81,0,11.45,0h2.3c0.33,0,0.47,0.14,0.47,0.47v2.68c0,0.33-0.14,0.47-0.47,0.47c-0.63,0-1.27,0-1.9,0.02
			c-0.63,0-0.96,0.31-0.96,0.96c-0.02,0.7,0,1.39,0,2.11h2.73c0.38,0,0.52,0.14,0.52,0.52v2.84c0,0.38-0.12,0.49-0.52,0.49
			c-0.85,0-2.65,0-2.73,0v7.66c0,0.4-0.12,0.54-0.54,0.54c-0.99,0-1.95,0-2.94,0c-0.35,0-0.49-0.14-0.49-0.49
			C6.91,15.81,6.91,10.67,6.91,10.6L6.91,10.6z"/>
	</g>
</g>
</svg>
