<?xml version="1.0" encoding="UTF-8"?>
<svg width="44px" height="60px" viewBox="0 0 44 60" version="1.1" xmlns="http://www.w3.org/2000/svg" xmlns:xlink="http://www.w3.org/1999/xlink">
    <!-- Generator: Sketch 59 (86127) - https://sketch.com -->
    <title>Facil_de_usar</title>
    <desc>Created with Sketch.</desc>
    <defs>
        <path d="M8.32293333,32.1328 L22.0002667,32.1328 C22.7576,32.1328 23.4802667,32.4554667 23.9842667,33.0181333 C24.4882667,33.5808 24.7309333,34.3328 24.6509333,35.0848 L23.4536,46.1514667 L35.6776,27.8661333 L22.0002667,27.8661333 C21.2429333,27.8661333 20.5202667,27.5434667 20.0162667,26.9808 C19.5096,26.4181333 19.2669333,25.6661333 19.3496,24.9141333 L20.5469333,13.8501333 L8.32293333,32.1328 Z M19.6296,59.3328 C19.3256,59.3328 19.0189333,59.2821333 18.7176,59.1728 C17.5656,58.7514667 16.8456,57.5994667 16.9789333,56.3808 L19.0296,37.4661333 L3.3336,37.4661333 C2.3496,37.4661333 1.4456,36.9248 0.9816,36.0581333 C0.5176,35.1888 0.570933333,34.1354667 1.1176,33.3168 L22.1549333,1.8528 C22.8349333,0.8288 24.1256,0.407466667 25.2802667,0.8288 C26.4349333,1.24746667 27.1549333,2.40213333 27.0216,3.6208 L24.9709333,22.5328 L40.6669333,22.5328 C41.6509333,22.5328 42.5549333,23.0768 43.0189333,23.9434667 C43.4829333,24.8128 43.4296,25.8634667 42.8829333,26.6821333 L21.8456,58.1488 C21.3416,58.9061333 20.4989333,59.3328 19.6296,59.3328 L19.6296,59.3328 Z" id="path-1"></path>
    </defs>
    <g id="Super-admin-—-dashboard" stroke="none" stroke-width="1" fill="none" fill-rule="evenodd">
        <g id="Facil_de_usar">
            <mask id="mask-2" fill="white">
                <use xlink:href="#path-1"></use>
            </mask>
            <use id="🎨-Icon-Сolor" fill="#2565C7" xlink:href="#path-1"></use>
        </g>
    </g>
</svg>