<?xml version="1.0" encoding="utf-8"?>
<!-- Generator: Adobe Illustrator 24.2.1, SVG Export Plug-In . SVG Version: 6.00 Build 0)  -->
<svg version="1.1" id="Layer_1" xmlns="http://www.w3.org/2000/svg" xmlns:xlink="http://www.w3.org/1999/xlink" x="0px" y="0px"
	 viewBox="0 0 18.77 18.77" style="enable-background:new 0 0 18.77 18.77;" xml:space="preserve">
<style type="text/css">
	.st0{fill:#FFFFFF;}
</style>
<g>
	<g>
		<g>
			<path class="st0" d="M14.08,0H4.69C2.11,0,0,2.11,0,4.69v9.39c0,2.58,2.11,4.69,4.69,4.69h9.39c2.58,0,4.69-2.11,4.69-4.69V4.69
				C18.77,2.11,16.66,0,14.08,0z M17.21,14.08c0,1.72-1.4,3.13-3.13,3.13H4.69c-1.72,0-3.13-1.4-3.13-3.13V4.69
				c0-1.72,1.4-3.13,3.13-3.13h9.39c1.73,0,3.13,1.4,3.13,3.13L17.21,14.08L17.21,14.08z"/>
		</g>
	</g>
	<g>
		<g>
			<circle class="st0" cx="14.47" cy="4.3" r="1.17"/>
		</g>
	</g>
	<g>
		<g>
			<path class="st0" d="M9.39,4.69c-2.59,0-4.69,2.1-4.69,4.69c0,2.59,2.1,4.69,4.69,4.69c2.59,0,4.69-2.1,4.69-4.69
				C14.08,6.79,11.98,4.69,9.39,4.69z M9.39,12.51c-1.73,0-3.13-1.4-3.13-3.13s1.4-3.13,3.13-3.13s3.13,1.4,3.13,3.13
				S11.11,12.51,9.39,12.51z"/>
		</g>
	</g>
</g>
</svg>
