<?xml version="1.0" encoding="UTF-8"?>
<svg width="32px" height="32px" viewBox="0 0 32 32" version="1.1" xmlns="http://www.w3.org/2000/svg" xmlns:xlink="http://www.w3.org/1999/xlink">
    <!-- Generator: Sketch 59 (86127) - https://sketch.com -->
    <title>25) Spinner/5) 32 px - Giant/ 6) Control</title>
    <desc>Created with Sketch.</desc>
    <g id="Landing-UI-—-Mobile" stroke="none" stroke-width="1" fill="none" fill-rule="evenodd">
        <g id="Landing-—-Mobile" transform="translate(-174.000000, -3238.000000)" fill="#FFFFFF">
            <g id="25)-Spinner/5)-32-px---Giant/-6)-Control" transform="translate(174.000000, 3238.000000)">
                <path d="M10.6537836,0.756845971 L10.6543373,0.756647375 C11.8194857,0.338736116 13.1028317,0.944332563 13.5209948,2.10939053 C13.939041,3.27412297 13.3337323,4.55721862 12.1689999,4.97526487 C12.1688479,4.97531941 12.168696,4.97537393 12.168544,4.97542844 L12.1679903,4.97562703 L12.1679903,4.97562703 C7.5970052,6.61513172 4.48364159,10.9661191 4.48364159,15.9084909 C4.48364159,22.3207967 9.67611192,27.5178825 16.0799707,27.5178825 C21.045441,27.5178825 25.4122565,24.3644437 27.0275917,19.7484226 C27.4364464,18.5800694 28.714919,17.9642588 29.8833589,18.3728659 L29.8844838,18.3732593 C31.0526036,18.7817545 31.6684009,20.0598534 31.2599058,21.2279731 C31.2598535,21.2281225 31.2598013,21.2282719 31.259749,21.2284214 L31.259749,21.2284214 L31.259749,21.2284214 C29.0201525,27.6283468 22.9663795,32 16.0799707,32 C7.19863119,32 0,24.7949701 0,15.9084909 C0,9.06022502 4.31452701,3.030588 10.6537836,0.756845971 Z" id="Spinner"></path>
            </g>
        </g>
    </g>
</svg>