<?xml version="1.0" encoding="utf-8"?>
<!-- Generator: Adobe Illustrator 24.2.1, SVG Export Plug-In . SVG Version: 6.00 Build 0)  -->
<svg version="1.1" id="Layer_1" xmlns="http://www.w3.org/2000/svg" xmlns:xlink="http://www.w3.org/1999/xlink" x="0px" y="0px"
	 viewBox="0 0 18.77 18.77" style="enable-background:new 0 0 18.77 18.77;" xml:space="preserve">
<style type="text/css">
	.st0{fill:#FFFFFF;}
</style>
<g id="_x31_0.Linkedin_1_">
	<path class="st0" d="M18.77,18.77V11.9c0-3.38-0.73-5.96-4.67-5.96c-1.9,0-3.17,1.03-3.68,2.02h-0.05V6.24H6.64v12.53h3.89v-6.22
		c0-1.64,0.31-3.21,2.32-3.21c1.99,0,2.02,1.85,2.02,3.31v6.1h3.89L18.77,18.77z"/>
	<path class="st0" d="M0.3,6.24H4.2v12.53H0.3L0.3,6.24z"/>
	<path class="st0" d="M2.25,0C1.01,0,0,1.01,0,2.25s1.01,2.28,2.25,2.28S4.5,3.5,4.5,2.25S3.5,0,2.25,0z"/>
</g>
</svg>
