<?xml version="1.0" encoding="UTF-8"?>
<svg width="64px" height="70px" viewBox="0 0 64 70" version="1.1" xmlns="http://www.w3.org/2000/svg" xmlns:xlink="http://www.w3.org/1999/xlink">
    <!-- Generator: Sketch 59 (86127) - https://sketch.com -->
    <title>Proceso</title>
    <desc>Created with Sketch.</desc>
    <defs>
        <path d="M32,14 C30.068,14 28.5,12.432 28.5,10.5 C28.5,8.568 30.068,7 32,7 C33.932,7 35.5,8.568 35.5,10.5 C35.5,12.432 33.932,14 32,14 M42.5,10.5 C42.5,4.711 37.789,0 32,0 C26.211,0 21.5,4.711 21.5,10.5 C21.5,15.057 24.4365,18.9035 28.5,20.3525 L28.5,66.5 C28.5,68.4355 30.0645,70 32,70 C33.9355,70 35.5,68.4355 35.5,66.5 L35.5,20.3525 C39.5635,18.9035 42.5,15.057 42.5,10.5 M11,56 C9.068,56 7.5,54.432 7.5,52.5 C7.5,50.568 9.068,49 11,49 C12.932,49 14.5,50.568 14.5,52.5 C14.5,54.432 12.932,56 11,56 M14.5,42.6475 L14.5,3.5 C14.5,1.5645 12.9355,0 11,0 C9.0645,0 7.5,1.5645 7.5,3.5 L7.5,42.6475 C3.4365,44.0965 0.5,47.943 0.5,52.5 C0.5,57.057 3.4365,60.9035 7.5,62.3525 L7.5,66.5 C7.5,68.4355 9.0645,70 11,70 C12.9355,70 14.5,68.4355 14.5,66.5 L14.5,62.3525 C18.5635,60.9035 21.5,57.057 21.5,52.5 C21.5,47.943 18.5635,44.0965 14.5,42.6475 M53,42 C51.068,42 49.5,40.432 49.5,38.5 C49.5,36.568 51.068,35 53,35 C54.932,35 56.5,36.568 56.5,38.5 C56.5,40.432 54.932,42 53,42 M63.5,38.5 C63.5,33.943 60.5635,30.0965 56.5,28.6475 L56.5,3.5 C56.5,1.5645 54.9355,0 53,0 C51.0645,0 49.5,1.5645 49.5,3.5 L49.5,28.6475 C45.4365,30.0965 42.5,33.943 42.5,38.5 C42.5,43.057 45.4365,46.9035 49.5,48.3525 L49.5,66.5 C49.5,68.4355 51.0645,70 53,70 C54.9355,70 56.5,68.4355 56.5,66.5 L56.5,48.3525 C60.5635,46.9035 63.5,43.057 63.5,38.5" id="path-1"></path>
    </defs>
    <g id="Super-admin-—-dashboard" stroke="none" stroke-width="1" fill="none" fill-rule="evenodd">
        <g id="Proceso">
            <mask id="mask-2" fill="white">
                <use xlink:href="#path-1"></use>
            </mask>
            <use id="🎨-Icon-Сolor" fill="#2565C7" xlink:href="#path-1"></use>
        </g>
    </g>
</svg>