<?xml version="1.0" encoding="UTF-8"?>
<svg width="51px" height="48px" viewBox="0 0 51 48" version="1.1" xmlns="http://www.w3.org/2000/svg" xmlns:xlink="http://www.w3.org/1999/xlink">
    <!-- Generator: Sketch 59 (86127) - https://sketch.com -->
    <title>Requisitos</title>
    <desc>Created with Sketch.</desc>
    <g id="Super-admin-—-dashboard" stroke="none" stroke-width="1" fill="none" fill-rule="evenodd">
        <g id="Requisitos" fill="#2565C7">
            <path d="M18.6666667,26.6666667 C8.376,26.6666667 0,35.04 0,45.3333333 C0,46.8053333 1.192,48 2.66666667,48 C4.14133333,48 5.33333333,46.8053333 5.33333333,45.3333333 C5.33333333,37.9813333 11.3146667,32 18.6666667,32 C26.0186667,32 32,37.9813333 32,45.3333333 C32,46.8053333 33.192,48 34.6666667,48 C36.1413333,48 37.3333333,46.8053333 37.3333333,45.3333333 C37.3333333,35.04 28.9573333,26.6666667 18.6666667,26.6666667 M13.3333333,10.6666667 C13.3333333,13.608 15.7253333,16 18.6666667,16 C21.608,16 24,13.608 24,10.6666667 C24,7.72533333 21.608,5.33333333 18.6666667,5.33333333 C15.7253333,5.33333333 13.3333333,7.72533333 13.3333333,10.6666667 M8,10.6666667 C8,4.784 12.784,0 18.6666667,0 C24.5493333,0 29.3333333,4.784 29.3333333,10.6666667 C29.3333333,16.5493333 24.5493333,21.3333333 18.6666667,21.3333333 C12.784,21.3333333 8,16.5493333 8,10.6666667 M50.0133333,7.08266667 L43.0533333,15.0826667 C42.5493333,15.6613333 41.824,15.9946667 41.056,16 L41.04,16 C40.28,16 39.5573333,15.6773333 39.0533333,15.112 L35.3466667,10.9706667 C34.3653333,9.872 34.4586667,8.18666667 35.5546667,7.20533333 C36.656,6.22133333 38.3413333,6.31466667 39.32,7.41333333 L41.0106667,9.304 L45.9866667,3.584 C46.9546667,2.46933333 48.6373333,2.35466667 49.7493333,3.32266667 C50.8613333,4.288 50.9786667,5.97333333 50.0133333,7.08266667" id="🎨-Icon-Сolor"></path>
        </g>
    </g>
</svg>