<?xml version="1.0" encoding="UTF-8"?>
<svg width="70px" height="70px" viewBox="0 0 70 70" version="1.1" xmlns="http://www.w3.org/2000/svg" xmlns:xlink="http://www.w3.org/1999/xlink">
    <!-- Generator: Sketch 59 (86127) - https://sketch.com -->
    <title>Riesgo</title>
    <desc>Created with Sketch.</desc>
    <defs>
        <path d="M35,45.5 C36.932,45.5 38.5,47.068 38.5,49 C38.5,50.932 36.932,52.5 35,52.5 C33.068,52.5 31.5,50.932 31.5,49 C31.5,47.068 33.068,45.5 35,45.5 Z M35,17.5 C36.932,17.5 38.5,19.068 38.5,21 L38.5,21 L38.5,38.5 C38.5,40.432 36.932,42 35,42 C33.068,42 31.5,40.432 31.5,38.5 L31.5,38.5 L31.5,21 C31.5,19.068 33.068,17.5 35,17.5 Z M35,63 C19.5615,63 7,50.4385 7,35 C7,19.5615 19.5615,7 35,7 C50.4385,7 63,19.5615 63,35 C63,50.4385 50.4385,63 35,63 M35,0 C15.6695,0 0,15.6695 0,35 C0,54.3305 15.6695,70 35,70 C54.3305,70 70,54.3305 70,35 C70,15.6695 54.3305,0 35,0" id="path-1"></path>
    </defs>
    <g id="Super-admin-—-dashboard" stroke="none" stroke-width="1" fill="none" fill-rule="evenodd">
        <g id="Riesgo">
            <mask id="mask-2" fill="white">
                <use xlink:href="#path-1"></use>
            </mask>
            <use id="🎨-Icon-Сolor" fill="#2565C7" xlink:href="#path-1"></use>
        </g>
    </g>
</svg>