<?xml version="1.0" encoding="UTF-8"?>
<svg width="64px" height="64px" viewBox="0 0 64 64" version="1.1" xmlns="http://www.w3.org/2000/svg" xmlns:xlink="http://www.w3.org/1999/xlink">
    <!-- Generator: Sketch 59 (86127) - https://sketch.com -->
    <title>Requerimientos</title>
    <desc>Created with Sketch.</desc>
    <defs>
        <path d="M43.0845,0.50175 C45.0165,0.50175 46.5845,2.06625 46.5845,4.00175 C46.5845,5.93375 45.0165,7.50175 43.0845,7.50175 L43.0845,7.50175 L9.6,7.50175 C8.4415,7.50175 7.5,8.44325 7.5,9.60175 L7.5,9.60175 L7.5,54.39825 C7.5,55.55675 8.4415,56.50175 9.6,56.50175 L9.6,56.50175 L54.4,56.50175 C55.5585,56.50175 56.5,55.55675 56.5,54.39825 L56.5,54.39825 L56.5,34.91725 C56.5,32.98525 58.068,31.41725 60,31.41725 C61.932,31.41725 63.5,32.98525 63.5,34.91725 L63.5,34.91725 L63.5,54.39825 C63.5,59.41725 59.4155,63.50175 54.4,63.50175 L54.4,63.50175 L9.6,63.50175 C4.5845,63.50175 0.5,59.41725 0.5,54.39825 L0.5,54.39825 L0.5,9.60175 C0.5,4.58275 4.5845,0.50175 9.6,0.50175 L9.6,0.50175 Z M53.9856,12.06575 C55.3261,10.67975 57.5416,10.63775 58.9346,11.98525 C60.3241,13.32925 60.3591,15.54475 59.0151,16.93425 L59.0151,16.93425 L35.2956,41.43425 C34.6376,42.11675 33.7311,42.50175 32.7826,42.50175 L32.7826,42.50175 L32.7686,42.50175 C31.8166,42.49825 30.9066,42.10625 30.2486,41.41675 L30.2486,41.41675 L22.4681,33.26175 C21.1311,31.86175 21.1871,29.64625 22.5836,28.31275 C23.9836,26.97575 26.1956,27.03175 27.5326,28.42825 L27.5326,28.42825 L32.8001,33.95125 Z" id="path-1"></path>
    </defs>
    <g id="Super-admin-—-dashboard" stroke="none" stroke-width="1" fill="none" fill-rule="evenodd">
        <g id="Requerimientos">
            <mask id="mask-2" fill="white">
                <use xlink:href="#path-1"></use>
            </mask>
            <use id="🎨-Icon-Сolor" fill="#2565C7" xlink:href="#path-1"></use>
        </g>
    </g>
</svg>