<?xml version="1.0" encoding="utf-8"?>
<!-- Generator: Adobe Illustrator 24.2.1, SVG Export Plug-In . SVG Version: 6.00 Build 0)  -->
<svg version="1.1" id="Layer_1" xmlns="http://www.w3.org/2000/svg" xmlns:xlink="http://www.w3.org/1999/xlink" x="0px" y="0px"
	 viewBox="0 0 18.77 18.77" style="enable-background:new 0 0 18.77 18.77;" xml:space="preserve">
<style type="text/css">
	.st0{fill-rule:evenodd;clip-rule:evenodd;fill:#FFFFFF;}
</style>
<path class="st0" d="M16,2.73C14.25,0.97,11.91,0,9.42,0c-5.13,0-9.3,4.17-9.3,9.3c0,1.64,0.43,3.24,1.24,4.65l-1.32,4.82l4.93-1.29
	c1.36,0.74,2.89,1.13,4.44,1.13h0c5.13,0,9.3-4.17,9.3-9.3C18.73,6.82,17.76,4.49,16,2.73z M9.42,17.04L9.42,17.04
	c-1.39,0-2.75-0.37-3.94-1.08L5.2,15.79l-2.93,0.77l0.78-2.85l-0.18-0.29C2.1,12.18,1.69,10.76,1.69,9.3c0-4.26,3.47-7.73,7.73-7.73
	c2.06,0,4.01,0.81,5.47,2.27s2.26,3.4,2.26,5.47C17.15,13.57,13.69,17.04,9.42,17.04z M13.66,11.25c-0.23-0.12-1.38-0.68-1.59-0.76
	c-0.21-0.08-0.37-0.12-0.52,0.12c-0.16,0.23-0.6,0.76-0.74,0.91c-0.14,0.16-0.27,0.17-0.5,0.06c-0.23-0.12-0.98-0.36-1.87-1.15
	C7.75,9.81,7.29,9.05,7.15,8.81c-0.14-0.23,0-0.35,0.1-0.47c0.25-0.31,0.5-0.64,0.58-0.79c0.08-0.16,0.04-0.29-0.02-0.41
	C7.76,7.02,7.29,5.88,7.1,5.41c-0.19-0.45-0.38-0.39-0.52-0.4C6.44,5.01,6.29,5.01,6.13,5.01c-0.15,0-0.41,0.06-0.62,0.29
	C5.3,5.53,4.7,6.09,4.7,7.23s0.83,2.25,0.95,2.4c0.12,0.16,1.64,2.5,3.97,3.51c0.55,0.24,0.99,0.38,1.32,0.49
	c0.56,0.18,1.06,0.15,1.46,0.09c0.45-0.07,1.37-0.56,1.57-1.11c0.19-0.54,0.19-1.01,0.14-1.11C14.05,11.42,13.9,11.36,13.66,11.25z"
	/>
</svg>
